<mxfile host="65bd71144e">
    <diagram id="Jzm9B3oDO27hnH1zPxDM" name="Страница 1">
        <mxGraphModel dx="727" dy="574" grid="1" gridSize="10" guides="1" tooltips="1" connect="1" arrows="1" fold="1" page="1" pageScale="1" pageWidth="827" pageHeight="1169" math="0" shadow="0">
            <root>
                <mxCell id="0"/>
                <mxCell id="1" parent="0"/>
                <mxCell id="2" value="" style="edgeStyle=none;html=1;" edge="1" parent="1" source="3">
                    <mxGeometry relative="1" as="geometry">
                        <mxPoint x="330" y="220" as="targetPoint"/>
                    </mxGeometry>
                </mxCell>
                <mxCell id="3" value="START" style="ellipse;whiteSpace=wrap;html=1;" vertex="1" parent="1">
                    <mxGeometry x="270" y="100" width="120" height="80" as="geometry"/>
                </mxCell>
                <mxCell id="4" value="" style="edgeStyle=none;html=1;" edge="1" parent="1" source="5" target="7">
                    <mxGeometry relative="1" as="geometry"/>
                </mxCell>
                <mxCell id="5" value="arrayInput,&lt;br&gt;blankArray,&lt;br&gt;blankArray.Length = 0,&lt;br&gt;strLeng = 3,&lt;br&gt;size = arrayInput.Length&lt;br&gt;" style="rounded=0;whiteSpace=wrap;html=1;" vertex="1" parent="1">
                    <mxGeometry x="220" y="200" width="220" height="110" as="geometry"/>
                </mxCell>
                <mxCell id="6" value="true" style="edgeStyle=none;html=1;" edge="1" parent="1" source="7" target="10">
                    <mxGeometry relative="1" as="geometry"/>
                </mxCell>
                <mxCell id="7" value="i = 0, i &amp;lt; size, i++" style="shape=hexagon;perimeter=hexagonPerimeter2;whiteSpace=wrap;html=1;fixedSize=1;rounded=0;" vertex="1" parent="1">
                    <mxGeometry x="270" y="340" width="120" height="80" as="geometry"/>
                </mxCell>
                <mxCell id="8" value="" style="edgeStyle=none;html=1;" edge="1" parent="1" source="10" target="12">
                    <mxGeometry relative="1" as="geometry"/>
                </mxCell>
                <mxCell id="9" value="true" style="edgeLabel;html=1;align=center;verticalAlign=middle;resizable=0;points=[];" vertex="1" connectable="0" parent="8">
                    <mxGeometry x="-0.04" relative="1" as="geometry">
                        <mxPoint as="offset"/>
                    </mxGeometry>
                </mxCell>
                <mxCell id="10" value="arrayInput[i].Length &amp;lt;= strLeng ?" style="rhombus;whiteSpace=wrap;html=1;rounded=0;" vertex="1" parent="1">
                    <mxGeometry x="216.25" y="460" width="227.5" height="80" as="geometry"/>
                </mxCell>
                <mxCell id="11" value="" style="edgeStyle=none;html=1;entryX=0;entryY=0.5;entryDx=0;entryDy=0;exitX=0;exitY=0.5;exitDx=0;exitDy=0;" edge="1" parent="1" source="12" target="7">
                    <mxGeometry relative="1" as="geometry">
                        <mxPoint x="80" y="615" as="targetPoint"/>
                        <Array as="points">
                            <mxPoint x="150" y="605"/>
                            <mxPoint x="150" y="590"/>
                            <mxPoint x="150" y="520"/>
                            <mxPoint x="150" y="380"/>
                        </Array>
                    </mxGeometry>
                </mxCell>
                <mxCell id="12" value="blankArray.Length + 1,&lt;br&gt;blankArray[blankArray.Length -1] = arrayInput[i]" style="rounded=0;whiteSpace=wrap;html=1;" vertex="1" parent="1">
                    <mxGeometry x="197.5" y="580" width="265" height="50" as="geometry"/>
                </mxCell>
                <mxCell id="13" value="false" style="endArrow=classic;html=1;exitX=0;exitY=0.5;exitDx=0;exitDy=0;" edge="1" parent="1" source="10">
                    <mxGeometry width="50" height="50" relative="1" as="geometry">
                        <mxPoint x="340" y="550" as="sourcePoint"/>
                        <mxPoint x="150" y="500" as="targetPoint"/>
                        <Array as="points"/>
                    </mxGeometry>
                </mxCell>
                <mxCell id="14" value="blankArray" style="shape=document;whiteSpace=wrap;html=1;boundedLbl=1;" vertex="1" parent="1">
                    <mxGeometry x="270" y="660" width="120" height="80" as="geometry"/>
                </mxCell>
                <mxCell id="15" value="false" style="endArrow=classic;html=1;exitX=1;exitY=0.5;exitDx=0;exitDy=0;entryX=1;entryY=0.5;entryDx=0;entryDy=0;" edge="1" parent="1" source="7" target="14">
                    <mxGeometry width="50" height="50" relative="1" as="geometry">
                        <mxPoint x="340" y="550" as="sourcePoint"/>
                        <mxPoint x="390" y="500" as="targetPoint"/>
                        <Array as="points">
                            <mxPoint x="510" y="380"/>
                            <mxPoint x="510" y="700"/>
                        </Array>
                    </mxGeometry>
                </mxCell>
                <mxCell id="16" value="END" style="ellipse;whiteSpace=wrap;html=1;" vertex="1" parent="1">
                    <mxGeometry x="270" y="770" width="120" height="80" as="geometry"/>
                </mxCell>
                <mxCell id="17" value="" style="endArrow=classic;html=1;entryX=0.5;entryY=0;entryDx=0;entryDy=0;" edge="1" parent="1" source="14" target="16">
                    <mxGeometry width="50" height="50" relative="1" as="geometry">
                        <mxPoint x="340" y="680" as="sourcePoint"/>
                        <mxPoint x="390" y="630" as="targetPoint"/>
                    </mxGeometry>
                </mxCell>
                <mxCell id="18" value="&lt;h4 style=&quot;font-size: 14px&quot;&gt;&lt;font face=&quot;Times New Roman&quot; style=&quot;font-size: 14px&quot;&gt;Block diagram of the main substantive part of the adgorithm - method&amp;nbsp;&lt;span style=&quot;color: rgb(166 , 226 , 46) ; background-color: rgb(39 , 40 , 34) ; font-size: 14px&quot;&gt;FindCharArray( )&lt;/span&gt;&lt;/font&gt;&lt;/h4&gt;" style="text;html=1;align=center;verticalAlign=middle;resizable=0;points=[];autosize=1;strokeColor=none;fillColor=none;" vertex="1" parent="1">
                    <mxGeometry x="55" y="30" width="550" height="60" as="geometry"/>
                </mxCell>
            </root>
        </mxGraphModel>
    </diagram>
</mxfile>